<?xml version="1.0" encoding="UTF-8" standalone="no"?>
<!-- Created with Inkscape (http://www.inkscape.org/) -->

<svg
   version="1.1"
   id="svg1"
   width="320"
   height="320"
   viewBox="0 0 320 320"
   sodipodi:docname="hfswebsite.svg"
   inkscape:version="1.3.2 (091e20ef0f, 2023-11-25)"
   xmlns:inkscape="http://www.inkscape.org/namespaces/inkscape"
   xmlns:sodipodi="http://sodipodi.sourceforge.net/DTD/sodipodi-0.dtd"
   xmlns="http://www.w3.org/2000/svg"
   xmlns:svg="http://www.w3.org/2000/svg">
  <defs
     id="defs1" />
  <sodipodi:namedview
     id="namedview1"
     pagecolor="#ffffff"
     bordercolor="#000000"
     borderopacity="0.25"
     inkscape:showpageshadow="2"
     inkscape:pageopacity="0.0"
     inkscape:pagecheckerboard="0"
     inkscape:deskcolor="#d1d1d1"
     showgrid="false"
     inkscape:zoom="2.546875"
     inkscape:cx="160"
     inkscape:cy="160"
     inkscape:window-width="1916"
     inkscape:window-height="1021"
     inkscape:window-x="0"
     inkscape:window-y="0"
     inkscape:window-maximized="0"
     inkscape:current-layer="g1" />
  <g
     inkscape:groupmode="layer"
     inkscape:label="Image"
     id="g1">
    <path
       style="fill:#f16965;stroke:none"
       d="m 251.2,113.0958 c -6.61221,0.86859 -13.00617,1.87168 -18.88,5.30791 -14.92863,8.73334 -21.48486,28.91182 -9.77135,43.19629 5.36828,6.54656 12.81207,9.32805 20.33135,12.56988 5.55168,2.39352 11.7632,4.17742 16.96,7.27506 2.61488,1.55865 4.77625,3.79213 4.4452,7.03506 -0.36344,3.56012 -4.36627,4.71531 -7.3252,5.19877 -7.42373,1.21293 -15.26668,-1.35971 -21.76,-4.80889 -1.6193,-0.86015 -5.90266,-4.80183 -7.6674,-3.96394 -2.44133,1.15908 -4.78989,5.32863 -6.47557,7.41406 -1.91533,2.36953 -3.88322,4.69576 -5.82937,7.04 -0.62498,0.75281 -1.82536,1.7993 -1.75012,2.87877 0.0772,1.10818 1.4049,1.92135 2.20246,2.51135 2.32715,1.72148 4.80717,3.26316 7.36,4.62394 10.82916,5.77258 23.31664,8.31877 35.52,6.85457 9.76787,-1.17195 19.62943,-5.02988 26.09951,-12.70863 10.95326,-12.99941 8.45567,-33.56074 -6.25951,-42.49457 -8.11018,-4.92383 -17.74918,-7.78074 -26.56,-11.20494 -3.15279,-1.22529 -8.23131,-3.13406 -8.56691,-7.10049 -0.54688,-6.46346 8.20443,-7.41609 12.72691,-6.98568 4.61074,0.4388 8.95385,1.47525 13.12,3.54494 1.49768,0.74402 4.69281,3.46537 6.34543,3.15875 1.27266,-0.23612 2.37996,-2.30418 3.12668,-3.23801 l 7.36,-9.28 c 0.8593,-1.07418 3.04721,-2.89777 1.9274,-4.34297 -1.91555,-2.47215 -5.50978,-4.43215 -8.19951,-5.94148 -8.26516,-4.63801 -18.91477,-7.79627 -28.48,-6.53975 M 30.72,114.88 v 99.84 h 26.24 v -39.68 h 21.76 v 39.68 h 26.24 V 114.88 H 78.72 V 152 H 56.96 V 114.88 H 30.72 m 97.6,0 v 99.84 h 26.56 v -36.48 h 35.84 v -22.08 h -35.84 v -19.2 h 41.92 v -22.08 z"
       id="path1" />
  </g>
</svg>
